<svg xmlns="http://www.w3.org/2000/svg" viewBox="0 0 400 120" width="400" height="120">
  <defs>
    <linearGradient id="limeGrad" x1="0%" y1="0%" x2="100%" y2="100%">
      <stop offset="0%" stop-color="#39FF14"/>
      <stop offset="100%" stop-color="#7CFF6B"/>
    </linearGradient>
    <filter id="glow">
      <feGaussianBlur stdDeviation="2" result="blur"/>
      <feMerge>
        <feMergeNode in="blur"/>
        <feMergeNode in="SourceGraphic"/>
      </feMerge>
    </filter>
  </defs>

  <!-- Gear icon -->
  <g transform="translate(10, 10) scale(0.83)">
    <!-- Gear teeth -->
    <g fill="url(#limeGrad)" filter="url(#glow)">
      <rect x="55" y="2" width="10" height="14" rx="2"/>
      <rect x="55" y="2" width="10" height="14" rx="2" transform="rotate(30 60 60)"/>
      <rect x="55" y="2" width="10" height="14" rx="2" transform="rotate(60 60 60)"/>
      <rect x="55" y="2" width="10" height="14" rx="2" transform="rotate(90 60 60)"/>
      <rect x="55" y="2" width="10" height="14" rx="2" transform="rotate(120 60 60)"/>
      <rect x="55" y="2" width="10" height="14" rx="2" transform="rotate(150 60 60)"/>
      <rect x="55" y="2" width="10" height="14" rx="2" transform="rotate(180 60 60)"/>
      <rect x="55" y="2" width="10" height="14" rx="2" transform="rotate(210 60 60)"/>
      <rect x="55" y="2" width="10" height="14" rx="2" transform="rotate(240 60 60)"/>
      <rect x="55" y="2" width="10" height="14" rx="2" transform="rotate(270 60 60)"/>
      <rect x="55" y="2" width="10" height="14" rx="2" transform="rotate(300 60 60)"/>
      <rect x="55" y="2" width="10" height="14" rx="2" transform="rotate(330 60 60)"/>
    </g>
    <!-- Gear ring -->
    <circle cx="60" cy="60" r="40" fill="none" stroke="url(#limeGrad)" stroke-width="6" filter="url(#glow)"/>
    <!-- Letter A -->
    <g fill="url(#limeGrad)" filter="url(#glow)">
      <polygon points="42,82 52,38 56,38 48,82"/>
      <polygon points="78,82 68,38 64,38 72,82"/>
      <rect x="46" y="60" width="28" height="5" rx="1"/>
    </g>
    <!-- Lightning bolt -->
    <g fill="#0A0A0A">
      <polygon points="58,34 52,58 60,56 54,86 70,50 62,52 68,34"/>
    </g>
    <g fill="none" stroke="url(#limeGrad)" stroke-width="1.5">
      <polygon points="58,34 52,58 60,56 54,86 70,50 62,52 68,34"/>
    </g>
  </g>

  <!-- Text: AutoMart -->
  <text x="120" y="52" font-family="Outfit, sans-serif" font-weight="800" font-size="48" fill="#F0F0F0">
    Auto<tspan fill="#39FF14">Mart</tspan>
  </text>

  <!-- Tagline -->
  <text x="122" y="78" font-family="Inter, sans-serif" font-weight="400" font-size="14" fill="#8E8E8E">
    Premium Auto Parts • 30 Min Delivery
  </text>
</svg>
