<svg xmlns="http://www.w3.org/2000/svg" viewBox="0 0 32 32" width="32" height="32">
  <defs>
    <linearGradient id="g" x1="0%" y1="0%" x2="100%" y2="100%">
      <stop offset="0%" stop-color="#39FF14"/>
      <stop offset="100%" stop-color="#7CFF6B"/>
    </linearGradient>
  </defs>
  <!-- Gear teeth -->
  <g fill="url(#g)">
    <rect x="14.5" y="0.5" width="3" height="4" rx="0.5"/>
    <rect x="14.5" y="0.5" width="3" height="4" rx="0.5" transform="rotate(30 16 16)"/>
    <rect x="14.5" y="0.5" width="3" height="4" rx="0.5" transform="rotate(60 16 16)"/>
    <rect x="14.5" y="0.5" width="3" height="4" rx="0.5" transform="rotate(90 16 16)"/>
    <rect x="14.5" y="0.5" width="3" height="4" rx="0.5" transform="rotate(120 16 16)"/>
    <rect x="14.5" y="0.5" width="3" height="4" rx="0.5" transform="rotate(150 16 16)"/>
    <rect x="14.5" y="0.5" width="3" height="4" rx="0.5" transform="rotate(180 16 16)"/>
    <rect x="14.5" y="0.5" width="3" height="4" rx="0.5" transform="rotate(210 16 16)"/>
    <rect x="14.5" y="0.5" width="3" height="4" rx="0.5" transform="rotate(240 16 16)"/>
    <rect x="14.5" y="0.5" width="3" height="4" rx="0.5" transform="rotate(270 16 16)"/>
    <rect x="14.5" y="0.5" width="3" height="4" rx="0.5" transform="rotate(300 16 16)"/>
    <rect x="14.5" y="0.5" width="3" height="4" rx="0.5" transform="rotate(330 16 16)"/>
  </g>
  <!-- Gear ring -->
  <circle cx="16" cy="16" r="10.5" fill="none" stroke="url(#g)" stroke-width="1.8"/>
  <!-- Letter A -->
  <g fill="url(#g)">
    <polygon points="10.5,23 13.5,10 14.8,10 12.5,23"/>
    <polygon points="21.5,23 18.5,10 17.2,10 19.5,23"/>
    <rect x="11.5" y="16" width="9" height="1.4" rx="0.3"/>
  </g>
  <!-- Lightning bolt -->
  <polygon points="15.5,8 14,15.5 15.8,15 14.3,24 18.5,13 16.7,13.5 18.2,8" fill="#0A0A0A"/>
  <polygon points="15.5,8 14,15.5 15.8,15 14.3,24 18.5,13 16.7,13.5 18.2,8" fill="none" stroke="url(#g)" stroke-width="0.5"/>
</svg>
